<svg width="25" height="24" viewBox="0 0 25 24" fill="none" xmlns="http://www.w3.org/2000/svg">
<rect width="25" height="24" fill="#585F64"/>
<g clip-path="url(#clip0_2_3)">
<rect width="1920" height="5610" transform="translate(-659 -98)" fill="#F8F8F8"/>
<rect x="-659" y="-38" width="1920" height="160" fill="white"/>
<rect x="-19.5" y="-11" width="64" height="46" rx="8" fill="#FFBC57"/>
<path d="M21.5 3.47517H16.3772C15.8249 3.47517 15.3772 3.92289 15.3772 4.47517V9.59794C15.3772 10.1502 15.8249 10.5979 16.3772 10.5979H21.5C22.0523 10.5979 22.5 10.1502 22.5 9.59794V4.47517C22.5 3.92289 22.0523 3.47517 21.5 3.47517Z" fill="white"/>
<path d="M11.866 6.32945L8.24361 2.70711C7.85308 2.31658 7.21992 2.31658 6.82939 2.70711L3.20705 6.32945C2.81652 6.71998 2.81652 7.35314 3.20705 7.74366L6.82939 11.366C7.21992 11.7565 7.85308 11.7565 8.24361 11.366L11.866 7.74366C12.2565 7.35314 12.2565 6.71998 11.866 6.32945Z" fill="white"/>
<path d="M10.0979 14.8772H4.9751C4.42281 14.8772 3.9751 15.3249 3.9751 15.8772V21C3.9751 21.5523 4.42281 22 4.9751 22H10.0979C10.6502 22 11.0979 21.5523 11.0979 21V15.8772C11.0979 15.3249 10.6502 14.8772 10.0979 14.8772Z" fill="white"/>
<path d="M21.5 14.8772H16.3772C15.8249 14.8772 15.3772 15.3249 15.3772 15.8772V21C15.3772 21.5523 15.8249 22 16.3772 22H21.5C22.0523 22 22.5 21.5523 22.5 21V15.8772C22.5 15.3249 22.0523 14.8772 21.5 14.8772Z" fill="white"/>
</g>
<defs>
<clipPath id="clip0_2_3">
<rect width="1920" height="5610" fill="white" transform="translate(-659 -98)"/>
</clipPath>
</defs>
</svg>
