<svg width="24" height="24" viewBox="0 0 24 24" fill="none" xmlns="http://www.w3.org/2000/svg">
<path d="M15.29 6.29006C15.1963 6.38302 15.1219 6.49362 15.0711 6.61548C15.0203 6.73734 14.9942 6.86805 14.9942 7.00006C14.9942 7.13207 15.0203 7.26278 15.0711 7.38464C15.1219 7.50649 15.1963 7.61709 15.29 7.71006L18.59 11.0001L3 11.0001C2.73478 11.0001 2.48043 11.1054 2.29289 11.293C2.10536 11.4805 2 11.7348 2 12.0001C2 12.2653 2.10536 12.5196 2.29289 12.7072C2.48043 12.8947 2.73478 13.0001 3 13.0001L18.59 13.0001L15.29 16.2901C15.1017 16.4784 14.9959 16.7338 14.9959 17.0001C14.9959 17.2664 15.1017 17.5218 15.29 17.7101C15.4783 17.8984 15.7337 18.0041 16 18.0041C16.2663 18.0041 16.5217 17.8984 16.71 17.7101L21.71 12.7101C21.801 12.615 21.8724 12.5028 21.92 12.3801C21.9729 12.2604 22.0002 12.1309 22.0002 12.0001C22.0002 11.8692 21.9729 11.7398 21.92 11.6201C21.8724 11.4973 21.801 11.3852 21.71 11.2901L16.71 6.29006C16.617 6.19633 16.5064 6.12194 16.3846 6.07117C16.2627 6.0204 16.132 5.99426 16 5.99426C15.868 5.99426 15.7373 6.0204 15.6154 6.07117C15.4936 6.12194 15.383 6.19633 15.29 6.29006Z" fill="#FFBC57"/>
</svg>
